<svg id="Layer_1" data-name="Layer 1" xmlns="http://www.w3.org/2000/svg" viewBox="0 0 56 56"><defs><style>.cls-1{fill:#0073ff;}.cls-2{fill:#005ccc;}.cls-3{fill:#004599;}</style></defs><polygon class="cls-1" points="52.22 14 52.22 32.5 42.41 38.17 42.41 47.67 27.97 56 3.72 42 3.72 14 27.97 0 52.22 14"/><polygon class="cls-2" points="3.72 14 3.72 42 27.97 56 27.97 28 3.72 14"/><polygon class="cls-3" points="27.97 56 27.97 28 52.22 14 52.22 32.5 42.41 38.17 42.41 47.67 27.97 56"/><polygon class="cls-3" points="47.98 39.29 52.22 36.86 52.22 42 47.98 44.42 47.98 39.29"/><polygon class="cls-3" points="47.98 45.99 47.98 50 44.77 51.86 44.77 47.85 47.98 45.99"/></svg>