<?xml version="1.0" encoding="utf-8"?>
<!-- Generator: Adobe Illustrator 25.0.0, SVG Export Plug-In . SVG Version: 6.00 Build 0)  -->
<svg version="1.1" id="Layer_3" xmlns="http://www.w3.org/2000/svg" xmlns:xlink="http://www.w3.org/1999/xlink" x="0px" y="0px"
	 viewBox="0 0 370.4 379.4" style="enable-background:new 0 0 370.4 379.4;" xml:space="preserve">
<style type="text/css">
	.st0{fill:#0055FF;}
</style>
<g>
	<path class="st0" d="M213,373.1H62.7C16.4,373.1,0,343.7,0,319.9l0-77.4c0-12.2,9.9-22,22-22h0c12.2,0,22,9.9,22,22V307
		c0,12.2,9.9,22,22,22l141.6,0c1.3,0,2.6-0.1,3.8-0.3c119.6-20.2,115-129.4,114.7-134.1l0-1.2c0-136.8-110.6-142.8-118.1-143.1h-142
		c-12.2,0-22,9.9-22,22v18.9c0,12.2,9.9,22,22,22h133.3l1.3,0.2c52.4,6.5,64.9,55.2,64.2,80.3c-0.2,52.1-42.5,69.6-64.9,71.6l-2,0.1
		h-75.8c-12.2,0-22-9.9-22-22v0c0-12.2,9.9-22,22-22l72.6,0c1.4,0,2.9-0.1,4.3-0.4c8.2-1.7,21.7-7.6,21.7-27.6l0-0.7
		c0.1-5-0.6-30-22.2-34.9c-1.4-0.3-2.9-0.4-4.3-0.4l-127.5,0c-55.3-1-66.8-32.8-66.8-57V70C0,20.2,34.8,6.3,55.6,6.3l153.4,0
		c1.6,0,161,6.1,161.3,186.6c2.7,54.1-26.3,160.4-155.7,180L213,373.1z"/>
</g>
</svg>
