<svg id="Layer_1" data-name="Layer 1" xmlns="http://www.w3.org/2000/svg" viewBox="0 0 180 56"><defs><style>.cls-1{fill:#0073ff;}.cls-2{fill:#005ccc;}.cls-3{fill:#004599;}.cls-4{fill:#fff;}</style></defs><polygon class="cls-1" points="48.5 14 48.5 32.5 38.69 38.17 38.69 47.67 24.25 56 0 42 0 14 24.25 0 48.5 14"/><polygon class="cls-2" points="0 14 0 42 24.25 56 24.25 28 0 14"/><polygon class="cls-3" points="24.25 56 24.25 28 48.5 14 48.5 32.5 38.69 38.17 38.69 47.67 24.25 56"/><polygon class="cls-3" points="44.26 39.29 48.5 36.86 48.5 42 44.26 44.42 44.26 39.29"/><polygon class="cls-3" points="44.26 45.99 44.26 50 41.05 51.86 41.05 47.85 44.26 45.99"/><path class="cls-4" d="M82,17.66c0,7.09-5,11.65-12.75,11.65H60V6h9.29C77.08,6,82,10.6,82,17.66Zm-7.49,0c0-2.8-1.8-4.8-5.26-4.8h-1.8v9.59h1.8C72.75,22.45,74.55,20.49,74.55,17.66Z"/><path class="cls-4" d="M97.52,25.71H90.93l-1,3.6H81.88L89.67,6h9.12l7.79,23.3H98.52Zm-1.43-5.19-1.86-6.76-1.87,6.76Z"/><path class="cls-4" d="M128.72,24.82,131,27.05l-3.56,3.56L125,28.14a13,13,0,0,1-6.26,1.6,11.92,11.92,0,0,1-12.28-12.08,12.29,12.29,0,0,1,24.57,0A12.16,12.16,0,0,1,128.72,24.82Zm-9.45-2.37-1.87-1.9L121,17l2.23,2.27a5,5,0,0,0,.27-1.63,4.82,4.82,0,0,0-9.63,0,4.63,4.63,0,0,0,4.83,4.79Z"/><path class="cls-4" d="M149.9,23.05v6.26H133.49V6H149.6v6.25H141v2.6h7.56v5.39H141v2.8Z"/><path class="cls-4" d="M180,6v23.3h-7.49V17.06l-5.19,9h-2.07l-5.19-9V29.31h-7.49V6h8.05l5.66,9.92L171.94,6Z"/><path class="cls-4" d="M73.56,45c0,2.72-2,5.39-6.52,5.39-3.27,0-6.19-1.34-7-4.24l3.27-1c.25,1,1.3,2.3,3.75,2.3,1.74,0,3.14-.67,3.14-2.17,0-1.75-2-1.87-4.74-2.55-3.52-.87-4.7-2.64-4.7-5.07,0-3.29,2.53-5.34,6.17-5.34,2.92,0,5.22,1.45,6,4.12l-3.3.8a2.68,2.68,0,0,0-2.84-2c-1.45,0-2.65.75-2.65,2.15,0,2,2.22,2.25,3.85,2.62C72.06,41,73.56,42.18,73.56,45Z"/><path class="cls-4" d="M79.65,40.31v4.61c0,1.45.2,2.3,1.95,2.3a6.3,6.3,0,0,0,.75,0v2.9a4.07,4.07,0,0,1-1.32.17c-3.25,0-4.55-2.17-4.55-4.79V40.31h-1.8v-2.9h1.8V34.76h3.17v2.65h2.7v2.9Z"/><path class="cls-4" d="M96.46,37.41V50.07H93.29V48.52a4.13,4.13,0,0,1-3.67,1.87c-3.2,0-4.65-2.59-4.65-5.27V37.41h3.17v7c0,1.62.68,2.85,2.45,2.85a2.59,2.59,0,0,0,2.7-2.85v-7Z"/><path class="cls-4" d="M112.09,32.59V50.07h-3.17V48.6a4.87,4.87,0,0,1-4,1.79c-3.92,0-6.16-3.32-6.16-6.64s2.24-6.64,6.16-6.64a4.8,4.8,0,0,1,4,1.8V32.59Zm-3.32,11.16a3.41,3.41,0,1,0-6.82,0,3.42,3.42,0,1,0,6.82,0Z"/><path class="cls-4" d="M115,33.86a1.69,1.69,0,1,1,1.67,1.7A1.67,1.67,0,0,1,115,33.86Zm.1,3.55h3.17V50.07h-3.17Z"/><path class="cls-4" d="M133.87,43.75a6.68,6.68,0,1,1-6.69-6.64A6.57,6.57,0,0,1,133.87,43.75Zm-3.25,0a3.44,3.44,0,1,0-3.44,3.6A3.39,3.39,0,0,0,130.62,43.75Z"/><path class="cls-4" d="M145.8,46.17c0,2.5-1.82,4.22-5.36,4.22-2.43,0-4.87-1-5.45-3.09l3-.95c.1.52.6,1.37,2.45,1.37,1.32,0,2.07-.47,2.07-1.32,0-1.2-1.82-1.15-3.32-1.48-2.45-.49-3.7-1.67-3.7-3.84,0-2.4,2-4,5-4,2.17,0,4.32,1.07,4.85,3.27l-2.88.7a1.83,1.83,0,0,0-2-1.3c-.92,0-1.87.35-1.87,1.3,0,1.12,1.7,1.2,2.7,1.42C144.43,43.18,145.8,44,145.8,46.17Z"/></svg>