<svg id="Layer_1" data-name="Layer 1" xmlns="http://www.w3.org/2000/svg" viewBox="0 0 130 56"><defs><style>.cls-1{fill:#0073ff;}.cls-2{fill:#005ccc;}.cls-3{fill:#004599;}.cls-4{fill:#fff;}</style></defs><polygon class="cls-1" points="48.5 14 48.5 32.5 38.69 38.17 38.69 47.67 24.25 56 0 42 0 14 24.25 0 48.5 14"/><polygon class="cls-2" points="0 14 0 42 24.25 56 24.25 28 0 14"/><polygon class="cls-3" points="24.25 56 24.25 28 48.5 14 48.5 32.5 38.69 38.17 38.69 47.67 24.25 56"/><polygon class="cls-3" points="44.26 39.29 48.5 36.86 48.5 42 44.26 44.42 44.26 39.29"/><polygon class="cls-3" points="44.26 45.99 44.26 50 41.05 51.86 41.05 47.85 44.26 45.99"/><path class="cls-4" d="M68.21,21.35c0,4.47-3.13,7.35-8,7.35H54.31V14h5.86C65.08,14,68.21,16.9,68.21,21.35Zm-4.73,0c0-1.76-1.13-3-3.31-3H59v6h1.14C62.35,24.37,63.48,23.13,63.48,21.35Z"/><path class="cls-4" d="M78,26.43H73.82l-.63,2.27H68.11L73,14h5.75l4.91,14.7H78.6Zm-.9-3.28-1.18-4.26-1.17,4.26Z"/><path class="cls-4" d="M97.65,25.86l1.41,1.41-2.25,2.25L95.28,28a8.25,8.25,0,0,1-4,1,7.61,7.61,0,1,1,7.75-7.62A7.67,7.67,0,0,1,97.65,25.86Zm-6-1.49-1.18-1.19L92.78,21l1.4,1.43a3.09,3.09,0,0,0,.17-1,3,3,0,1,0-3,3Z"/><path class="cls-4" d="M111,24.75V28.7H100.65V14h10.17V18h-5.44v1.64h4.76V23h-4.76v1.76Z"/><path class="cls-4" d="M130,14V28.7h-4.73V21L122,26.64h-1.3L117.41,21V28.7h-4.72V14h5.08l3.57,6.26L124.91,14Z"/><path class="cls-4" d="M62.2,38.59C62.2,40.31,61,42,58.09,42c-2.06,0-3.9-.86-4.44-2.68l2.06-.65a2.19,2.19,0,0,0,2.37,1.45c1.1,0,2-.42,2-1.37s-1.24-1.18-3-1.61c-2.22-.55-3-1.66-3-3.19,0-2.08,1.59-3.37,3.89-3.37a3.62,3.62,0,0,1,3.76,2.6l-2.08.5a1.68,1.68,0,0,0-1.79-1.23c-.92,0-1.67.47-1.67,1.36,0,1.24,1.4,1.41,2.42,1.65C61.26,36.06,62.2,36.81,62.2,38.59Z"/><path class="cls-4" d="M66.05,35.63v2.92c0,.91.12,1.45,1.22,1.45a3.73,3.73,0,0,0,.48,0v1.83a2.74,2.74,0,0,1-.84.11,2.69,2.69,0,0,1-2.86-3V35.63H62.91V33.81h1.14V32.14h2v1.67h1.7v1.82Z"/><path class="cls-4" d="M76.64,33.81v8h-2v-1A2.57,2.57,0,0,1,72.33,42c-2,0-2.93-1.64-2.93-3.33V33.81h2v4.44c0,1,.43,1.79,1.54,1.79a1.63,1.63,0,0,0,1.7-1.79V33.81Z"/><path class="cls-4" d="M86.5,30.77v11h-2v-.93A3.05,3.05,0,0,1,82,42a4,4,0,0,1-3.89-4.19A4,4,0,0,1,82,33.62a3,3,0,0,1,2.55,1.13v-4Zm-2.09,7a2.15,2.15,0,1,0-2.14,2.26A2.11,2.11,0,0,0,84.41,37.81Z"/><path class="cls-4" d="M88.33,31.57a1.07,1.07,0,1,1,1.06,1.07A1.05,1.05,0,0,1,88.33,31.57Zm.07,2.24h2v8h-2Z"/><path class="cls-4" d="M100.24,37.81A4.22,4.22,0,1,1,96,33.62,4.15,4.15,0,0,1,100.24,37.81Zm-2,0A2.17,2.17,0,1,0,96,40.07,2.14,2.14,0,0,0,98.19,37.81Z"/><path class="cls-4" d="M107.77,39.33c0,1.58-1.15,2.67-3.39,2.67-1.53,0-3.07-.62-3.43-2l1.92-.6c.06.33.38.87,1.54.87.84,0,1.31-.3,1.31-.83,0-.76-1.15-.73-2.1-.93-1.54-.32-2.33-1.06-2.33-2.43s1.26-2.5,3.14-2.5a2.93,2.93,0,0,1,3,2.06l-1.81.44a1.15,1.15,0,0,0-1.24-.82c-.58,0-1.18.22-1.18.82s1.07.76,1.7.9C106.9,37.44,107.77,38,107.77,39.33Z"/></svg>